<mxfile host="app.diagrams.net" modified="2021-01-06T13:03:34.154Z" agent="5.0 (Macintosh; Intel Mac OS X 10_15_7) AppleWebKit/537.36 (KHTML, like Gecko) Chrome/87.0.4280.88 Safari/537.36" etag="c3opxZUJIo-Fs3QtWVQ5" version="14.1.8" type="github">
  <diagram id="uAkLbzL0LD5zsRBFBLl1" name="Page-1">
    <mxGraphModel dx="1257" dy="786" grid="1" gridSize="10" guides="1" tooltips="1" connect="1" arrows="1" fold="1" page="1" pageScale="1" pageWidth="827" pageHeight="1169" math="0" shadow="0">
      <root>
        <mxCell id="0" />
        <mxCell id="1" parent="0" />
        <mxCell id="olPS6k4JVzqs4fGbaLp4-1" value="事件" style="rounded=0;whiteSpace=wrap;html=1;fillColor=#f5f5f5;strokeColor=#666666;fontColor=#333333;" vertex="1" parent="1">
          <mxGeometry x="160" y="270" width="130" height="50" as="geometry" />
        </mxCell>
        <mxCell id="olPS6k4JVzqs4fGbaLp4-2" value="策略模块" style="rounded=0;whiteSpace=wrap;html=1;fillColor=#f9f7ed;strokeColor=#36393d;" vertex="1" parent="1">
          <mxGeometry x="160" y="380" width="130" height="50" as="geometry" />
        </mxCell>
        <mxCell id="olPS6k4JVzqs4fGbaLp4-3" value="决策模块" style="rounded=0;whiteSpace=wrap;html=1;fillColor=#f9f7ed;strokeColor=#36393d;" vertex="1" parent="1">
          <mxGeometry x="480" y="380" width="130" height="50" as="geometry" />
        </mxCell>
        <mxCell id="olPS6k4JVzqs4fGbaLp4-4" value="指标模块" style="rounded=0;whiteSpace=wrap;html=1;fillColor=#f9f7ed;strokeColor=#36393d;" vertex="1" parent="1">
          <mxGeometry x="160" y="450" width="130" height="50" as="geometry" />
        </mxCell>
        <mxCell id="olPS6k4JVzqs4fGbaLp4-5" value="血缘模块" style="rounded=0;whiteSpace=wrap;html=1;fillColor=#f9f7ed;strokeColor=#36393d;" vertex="1" parent="1">
          <mxGeometry x="320" y="450" width="130" height="50" as="geometry" />
        </mxCell>
        <mxCell id="olPS6k4JVzqs4fGbaLp4-6" value="审核模块" style="rounded=0;whiteSpace=wrap;html=1;fillColor=#f9f7ed;strokeColor=#36393d;" vertex="1" parent="1">
          <mxGeometry x="480" y="450" width="130" height="50" as="geometry" />
        </mxCell>
        <mxCell id="olPS6k4JVzqs4fGbaLp4-7" value="业务模块" style="text;html=1;strokeColor=none;fillColor=none;align=center;verticalAlign=middle;whiteSpace=wrap;rounded=0;" vertex="1" parent="1">
          <mxGeometry x="60" y="290" width="50" height="20" as="geometry" />
        </mxCell>
        <mxCell id="olPS6k4JVzqs4fGbaLp4-8" value="规则" style="rounded=0;whiteSpace=wrap;html=1;fillColor=#dae8fc;strokeColor=#6c8ebf;" vertex="1" parent="1">
          <mxGeometry x="320" y="270" width="130" height="50" as="geometry" />
        </mxCell>
        <mxCell id="olPS6k4JVzqs4fGbaLp4-9" value="因子" style="rounded=0;whiteSpace=wrap;html=1;fillColor=#d5e8d4;strokeColor=#82b366;" vertex="1" parent="1">
          <mxGeometry x="480" y="270" width="130" height="50" as="geometry" />
        </mxCell>
        <mxCell id="olPS6k4JVzqs4fGbaLp4-10" value="基础模块" style="text;html=1;strokeColor=none;fillColor=none;align=center;verticalAlign=middle;whiteSpace=wrap;rounded=0;" vertex="1" parent="1">
          <mxGeometry x="60" y="405" width="50" height="20" as="geometry" />
        </mxCell>
        <mxCell id="olPS6k4JVzqs4fGbaLp4-11" style="edgeStyle=orthogonalEdgeStyle;rounded=0;orthogonalLoop=1;jettySize=auto;html=1;exitX=0.5;exitY=1;exitDx=0;exitDy=0;" edge="1" parent="1" source="olPS6k4JVzqs4fGbaLp4-10" target="olPS6k4JVzqs4fGbaLp4-10">
          <mxGeometry relative="1" as="geometry" />
        </mxCell>
        <mxCell id="olPS6k4JVzqs4fGbaLp4-12" value="" style="endArrow=none;html=1;dashed=1;fontStyle=1;strokeWidth=2;" edge="1" parent="1">
          <mxGeometry width="50" height="50" relative="1" as="geometry">
            <mxPoint x="55" y="360" as="sourcePoint" />
            <mxPoint x="715" y="360" as="targetPoint" />
          </mxGeometry>
        </mxCell>
        <mxCell id="olPS6k4JVzqs4fGbaLp4-13" value="表达式模块" style="rounded=0;whiteSpace=wrap;html=1;fillColor=#f9f7ed;strokeColor=#36393d;" vertex="1" parent="1">
          <mxGeometry x="320" y="380" width="130" height="50" as="geometry" />
        </mxCell>
      </root>
    </mxGraphModel>
  </diagram>
</mxfile>
